<svg xmlns="http://www.w3.org/2000/svg" viewBox="0 0 400 300" width="406" height="306" class="illustration styles_illustrationTablet__1DWOa"><g id="_542_flying_kite_outline" data-name="#542_flying_kite_outline"><path d="M293.85,150a93.86,93.86,0,0,1-177.68,42.22c-.31-.61-.62-1.22-.91-1.84a93.13,93.13,0,0,1-9.08-38.53c0-.61,0-1.23,0-1.85a93.85,93.85,0,0,1,187.67-2.27C293.84,148.48,293.85,149.24,293.85,150Z" fill="#68e1fd"></path><path d="M200,244.85a94.4,94.4,0,0,1-84.72-52.18c-.32-.63-.63-1.24-.93-1.87a93.73,93.73,0,0,1-9.17-38.93c0-.61,0-1.24,0-1.87a94.85,94.85,0,0,1,189.67-2.29c0,.75,0,1.52,0,2.29A94.83,94.83,0,0,1,200,244.85Zm0-187.7A92.76,92.76,0,0,0,107.15,150c0,.61,0,1.22,0,1.82a91.69,91.69,0,0,0,9,38.13c.29.61.59,1.2.89,1.8A92.9,92.9,0,0,0,245.43,231a92.95,92.95,0,0,0,47.42-81c0-.75,0-1.5,0-2.24A92.13,92.13,0,0,0,289,123.49a93.58,93.58,0,0,0-33-47.56A92.08,92.08,0,0,0,200,57.15Z" fill="#093f68"></path><path d="M271.74,211a1,1,0,0,1-.93-.64c-.43-1.11-.82-2.22-1.2-3.31-2.51-7.21-4.5-12.91-16.12-12.13-21.59,1.43-26.92-20.85-27-21.08a1,1,0,0,1,2-.44,31.8,31.8,0,0,0,5,10.35,21.64,21.64,0,0,0,19.93,9.17c13.14-.87,15.57,6.1,18.14,13.47.37,1.07.75,2.16,1.17,3.25a1,1,0,0,1-.57,1.3A1.13,1.13,0,0,1,271.74,211Z" fill="#093f68"></path><polygon points="174.3 67.02 147.27 128.14 227.49 174.63 239.28 82.67 174.3 67.02" fill="#ffbc0e"></polygon><path d="M227.49,175.63a1,1,0,0,1-.5-.13L146.77,129a1,1,0,0,1-.42-1.27l27-61.12a1,1,0,0,1,1.15-.57l65,15.65a1,1,0,0,1,.76,1.1l-11.79,92a1,1,0,0,1-.55.77A1,1,0,0,1,227.49,175.63Zm-78.94-47.9L226.69,173l11.48-89.58L174.88,68.19Z" fill="#093f68"></path><path d="M227.49,175.63a1,1,0,0,1-.9-.55L173.4,67.46a1,1,0,0,1,1.8-.88l53.18,107.61a1,1,0,0,1-.45,1.34A1,1,0,0,1,227.49,175.63Z" fill="#093f68"></path><path d="M147.27,129.14a1,1,0,0,1-.66-.25,1,1,0,0,1-.09-1.41c.22-.24,21.93-24.57,40.55-34.55s50.81-11.21,52.17-11.26a1,1,0,0,1,1,1,1,1,0,0,1-1,1c-.33,0-33,1.24-51.29,11s-39.79,33.87-40,34.11A1,1,0,0,1,147.27,129.14Z" fill="#093f68"></path><path d="M215.07,150.5a1,1,0,0,1-.47-.11l-34.48-18a1,1,0,0,1-.52-1.07l7-37.68a1,1,0,0,1,2,.37l-6.83,36.94,33.83,17.68a1,1,0,0,1-.46,1.88Z" fill="#093f68"></path><path d="M112.84,185.85a1,1,0,0,1-.92-.62,1,1,0,0,1,.54-1.3c27.87-11.41,44.66-25.17,53.84-34.71,9.93-10.32,13.33-18.05,13.36-18.13a1,1,0,0,1,1.84.79c-.13.32-14.13,31.74-68.28,53.9A1,1,0,0,1,112.84,185.85Z" fill="#093f68"></path><polygon points="236.74 187.19 238.03 175.84 247.84 180.62 236.74 187.19" fill="#ffbc0e"></polygon><path d="M236.74,188.19a1,1,0,0,1-.54-.16,1,1,0,0,1-.45-.95L237,175.73a1,1,0,0,1,1.43-.79l9.81,4.78a1,1,0,0,1,.56.85,1,1,0,0,1-.49.91l-11.1,6.57A.94.94,0,0,1,236.74,188.19Zm2.13-10.83-.91,7.95,7.77-4.61Z" fill="#093f68"></path><polygon points="236.4 188.08 225.66 195.46 236.14 200.98 236.4 188.08" fill="#ffbc0e"></polygon><path d="M236.14,202a1,1,0,0,1-.46-.11l-10.48-5.53a1,1,0,0,1-.53-.82,1,1,0,0,1,.43-.89l10.74-7.38a1,1,0,0,1,1-.05,1,1,0,0,1,.52.9l-.26,12.9a1,1,0,0,1-.49.84A1,1,0,0,1,236.14,202Zm-8.55-6.64,7.58,4,.19-9.33Z" fill="#093f68"></path><polygon points="263.85 195.4 268.25 184.85 276.35 192.16 263.85 195.4" fill="#ffbc0e"></polygon><path d="M263.85,196.4a1,1,0,0,1-.75-.35,1,1,0,0,1-.17-1l4.4-10.54a1,1,0,0,1,1.59-.36l8.1,7.31a1,1,0,0,1,.3,1,1,1,0,0,1-.72.73l-12.5,3.24A1,1,0,0,1,263.85,196.4Zm4.78-9.86-3.08,7.38,8.75-2.26Z" fill="#093f68"></path><polygon points="263.28 196.15 250.92 200.26 259.45 208.48 263.28 196.15" fill="#ffbc0e"></polygon><path d="M259.45,209.48a1,1,0,0,1-.69-.28L250.22,201a1,1,0,0,1,.38-1.67L263,195.2a1,1,0,0,1,1,.24,1,1,0,0,1,.26,1l-3.83,12.32a1,1,0,0,1-.71.68A1.07,1.07,0,0,1,259.45,209.48Zm-6.65-8.79,6.18,5.94,2.77-8.91Z" fill="#093f68"></path><path d="M254.62,226.32a93.87,93.87,0,0,1-138.45-34.1c6.2-3.42,14.13-4.94,20.46-5a33.65,33.65,0,0,1,6.26.46,25.33,25.33,0,0,1,4.19,1.1c10.37,3.76,16.84,16,14.1,26.68a15.72,15.72,0,0,1,23.12,16c.79-5.65,11-8.12,15.2-7.47,5,.76,6.92,2.77,8.22,7.57,8.05-5.43,15.18-12.37,25.55-12.69,5.07-.16,10.06,1.41,14.65,3.56A42.57,42.57,0,0,1,254.62,226.32Z" fill="#fff"></path><path d="M200,244.85a94.4,94.4,0,0,1-84.72-52.18,1,1,0,0,1,.41-1.33,46.33,46.33,0,0,1,20.93-5.12,33.91,33.91,0,0,1,6.44.48,25.54,25.54,0,0,1,4.36,1.14c10.21,3.7,16.79,15.22,15.14,25.88a16.67,16.67,0,0,1,22.77,13.73,9.54,9.54,0,0,1,1.2-1A20.55,20.55,0,0,1,199.65,223c4.77.73,7.15,2.6,8.63,7,1.18-.82,2.35-1.67,3.49-2.5,6.3-4.59,12.82-9.32,21.47-9.59,4.6-.15,9.54,1.05,15.1,3.65a43.23,43.23,0,0,1,6.86,4,1,1,0,0,1,.42.81,1,1,0,0,1-.42.81A94.49,94.49,0,0,1,200,244.85Zm-82.49-52.21A92.89,92.89,0,0,0,245.43,231c2.53-1.42,5-3,7.44-4.66a41.29,41.29,0,0,0-5.38-3c-5.26-2.46-9.9-3.6-14.19-3.46-8,.25-14,4.6-20.35,9.2-1.52,1.11-3.08,2.25-4.67,3.32a1,1,0,0,1-.91.11,1,1,0,0,1-.62-.68c-1.23-4.57-3-6.17-7.4-6.84A18.84,18.84,0,0,0,187.72,228a5.55,5.55,0,0,0-2.43,3.54v0a1,1,0,0,1-2-.28h0a14.71,14.71,0,0,0-21.65-14.95,1,1,0,0,1-1.09-.09,1,1,0,0,1-.36-1c2.62-10.22-3.55-21.89-13.47-25.49a24.37,24.37,0,0,0-4-1.05,32.61,32.61,0,0,0-6.08-.45A44.82,44.82,0,0,0,117.51,192.64Z" fill="#093f68"></path><path d="M293.82,147.73a295.29,295.29,0,0,0-37.91-3.26c-2.78-.05-5.92-.23-7.73-2.34A9,9,0,0,1,259,138.36a4.65,4.65,0,0,1,1.45-4.59,9,9,0,0,1,4.55-2.08,18,18,0,0,1,11.51,1.58c1.1-6.94,7.1-9.81,13.45-10.07A93.22,93.22,0,0,1,293.82,147.73Z" fill="#fff"></path><path d="M293.82,148.73h-.15a295.22,295.22,0,0,0-37.78-3.25c-3.17-.06-6.43-.31-8.47-2.69a1,1,0,0,1-.11-1.14A10,10,0,0,1,257.85,137a6,6,0,0,1,1.91-3.92,9.87,9.87,0,0,1,5.05-2.33,19,19,0,0,1,11,1.12c1.5-5.75,6.68-9.32,14.13-9.63a1,1,0,0,1,1,.71,94.55,94.55,0,0,1,3.9,24.8,1,1,0,0,1-.34.77A1,1,0,0,1,293.82,148.73ZM249.46,142c1.57,1.29,4,1.45,6.47,1.49a297.3,297.3,0,0,1,36.85,3.09,92.51,92.51,0,0,0-3.55-22.31c-3.66.29-10.57,1.82-11.73,9.18a1,1,0,0,1-.54.73,1,1,0,0,1-.9,0,16.87,16.87,0,0,0-10.86-1.49,7.87,7.87,0,0,0-4.06,1.83,3.67,3.67,0,0,0-1.18,3.56,1,1,0,0,1-1.34,1.23A8,8,0,0,0,249.46,142Z" fill="#093f68"></path><path d="M129.67,148.45c-1,2.67-4.41,3.46-7.27,3.7a82.94,82.94,0,0,1-16.22-.3c0-.61,0-1.23,0-1.85a93.87,93.87,0,0,1,2.83-23,17.75,17.75,0,0,1,2.52,1.54A16.77,16.77,0,0,1,118.28,141c2.73-.17,5.58-.32,8,.84S130.66,145.91,129.67,148.45Z" fill="#fff"></path><path d="M116,153.41a87.75,87.75,0,0,1-9.89-.57,1,1,0,0,1-.89-1c0-.62,0-1.25,0-1.88A95,95,0,0,1,108,126.81a1,1,0,0,1,1.41-.66,19,19,0,0,1,2.67,1.63,17.76,17.76,0,0,1,7.1,12.13,15.61,15.61,0,0,1,7.57,1c2.81,1.33,5.08,4.73,3.84,7.91h0c-1,2.5-3.72,4-8.12,4.33C120.35,153.32,118.17,153.41,116,153.41Zm-8.8-2.46a81.2,81.2,0,0,0,15.16.2c3.58-.3,5.74-1.33,6.42-3.07.78-2-.87-4.44-2.84-5.36-2.29-1.08-5.09-.91-7.56-.75a1,1,0,0,1-.72-.25,1,1,0,0,1-.34-.69,15.65,15.65,0,0,0-6.37-11.63c-.43-.31-.85-.59-1.27-.84A93.29,93.29,0,0,0,107.15,150C107.15,150.32,107.15,150.63,107.16,151Zm22.51-2.5h0Z" fill="#093f68"></path><path d="M163.88,226.72a1,1,0,0,1-1-1,11.82,11.82,0,0,0-12.08-11.58,1,1,0,1,1,0-2,13.8,13.8,0,0,1,14.12,13.54,1,1,0,0,1-1,1Z" fill="#093f68"></path></g></svg>